<?xml version="1.0" encoding="UTF-8"?>
<svg xmlns="http://www.w3.org/2000/svg" xmlns:xlink="http://www.w3.org/1999/xlink" width="0" height="0">
<defs>
<symbol fill="#000000" viewBox="0 0 256 256" id="Youtube"><path d="M164.44,121.34l-48-32A8,8,0,0,0,104,96v64a8,8,0,0,0,12.44,6.66l48-32a8,8,0,0,0,0-13.32ZM120,145.05V111l25.58,17ZM234.33,69.52a24,24,0,0,0-14.49-16.4C185.56,39.88,131,40,128,40s-57.56-.12-91.84,13.12a24,24,0,0,0-14.49,16.4C19.08,79.5,16,97.74,16,128s3.08,48.5,5.67,58.48a24,24,0,0,0,14.49,16.41C69,215.56,120.4,216,127.34,216h1.32c6.94,0,58.37-.44,91.18-13.11a24,24,0,0,0,14.49-16.41c2.59-10,5.67-28.22,5.67-58.48S236.92,79.5,234.33,69.52Zm-15.49,113a8,8,0,0,1-4.77,5.49c-31.65,12.22-85.48,12-86,12H128c-.54,0-54.33.2-86-12a8,8,0,0,1-4.77-5.49C34.8,173.39,32,156.57,32,128s2.8-45.39,5.16-54.47A8,8,0,0,1,41.93,68c30.52-11.79,81.66-12,85.85-12h.27c.54,0,54.38-.18,86,12a8,8,0,0,1,4.77,5.49C221.2,82.61,224,99.43,224,128S221.2,173.39,218.84,182.47Z"></path></symbol>
<symbol fill="#000000" viewBox="0 0 256 256" id="X"><path d="M214.75,211.71l-62.6-98.38,61.77-67.95a8,8,0,0,0-11.84-10.76L143.24,99.34,102.75,35.71A8,8,0,0,0,96,32H48a8,8,0,0,0-6.75,12.3l62.6,98.37-61.77,68a8,8,0,1,0,11.84,10.76l58.84-64.72,40.49,63.63A8,8,0,0,0,160,224h48a8,8,0,0,0,6.75-12.29ZM164.39,208,62.57,48h29L193.43,208Z"></path></symbol>
<symbol fill="#000000" viewBox="0 0 256 256" id="Twitch"><path d="M208,32H48A16,16,0,0,0,32,48V192a16,16,0,0,0,16,16H64v32a8,8,0,0,0,13.12,6.15L122.9,208h42.2a16,16,0,0,0,10.25-3.71l42.89-35.75A15.93,15.93,0,0,0,224,156.25V48A16,16,0,0,0,208,32Zm0,124.25L165.1,192H120a8,8,0,0,0-5.12,1.85L80,222.92V200a8,8,0,0,0-8-8H48V48H208ZM160,136V88a8,8,0,0,1,16,0v48a8,8,0,0,1-16,0Zm-48,0V88a8,8,0,0,1,16,0v48a8,8,0,0,1-16,0Z"></path></symbol>
<symbol fill="#000000" viewBox="0 0 256 256" id="Linkedin"><path d="M216,24H40A16,16,0,0,0,24,40V216a16,16,0,0,0,16,16H216a16,16,0,0,0,16-16V40A16,16,0,0,0,216,24Zm0,192H40V40H216V216ZM96,112v64a8,8,0,0,1-16,0V112a8,8,0,0,1,16,0Zm88,28v36a8,8,0,0,1-16,0V140a20,20,0,0,0-40,0v36a8,8,0,0,1-16,0V112a8,8,0,0,1,15.79-1.78A36,36,0,0,1,184,140ZM100,84A12,12,0,1,1,88,72,12,12,0,0,1,100,84Z"></path></symbol>
<symbol fill="#000000" viewBox="0 0 256 256" id="Instagram"><path d="M128,80a48,48,0,1,0,48,48A48.05,48.05,0,0,0,128,80Zm0,80a32,32,0,1,1,32-32A32,32,0,0,1,128,160ZM176,24H80A56.06,56.06,0,0,0,24,80v96a56.06,56.06,0,0,0,56,56h96a56.06,56.06,0,0,0,56-56V80A56.06,56.06,0,0,0,176,24Zm40,152a40,40,0,0,1-40,40H80a40,40,0,0,1-40-40V80A40,40,0,0,1,80,40h96a40,40,0,0,1,40,40ZM192,76a12,12,0,1,1-12-12A12,12,0,0,1,192,76Z"></path></symbol>
<symbol fill="#000000" viewBox="0 0 256 256" id="Home"><path d="M219.31,108.68l-80-80a16,16,0,0,0-22.62,0l-80,80A15.87,15.87,0,0,0,32,120v96a8,8,0,0,0,8,8h64a8,8,0,0,0,8-8V160h32v56a8,8,0,0,0,8,8h64a8,8,0,0,0,8-8V120A15.87,15.87,0,0,0,219.31,108.68ZM208,208H160V152a8,8,0,0,0-8-8H104a8,8,0,0,0-8,8v56H48V120l80-80,80,80Z"></path></symbol>
<symbol fill="#000000" viewBox="0 0 256 256" id="Github"><path d="M208.31,75.68A59.78,59.78,0,0,0,202.93,28,8,8,0,0,0,196,24a59.75,59.75,0,0,0-48,24H124A59.75,59.75,0,0,0,76,24a8,8,0,0,0-6.93,4,59.78,59.78,0,0,0-5.38,47.68A58.14,58.14,0,0,0,56,104v8a56.06,56.06,0,0,0,48.44,55.47A39.8,39.8,0,0,0,96,192v8H72a24,24,0,0,1-24-24A40,40,0,0,0,8,136a8,8,0,0,0,0,16,24,24,0,0,1,24,24,40,40,0,0,0,40,40H96v16a8,8,0,0,0,16,0V192a24,24,0,0,1,48,0v40a8,8,0,0,0,16,0V192a39.8,39.8,0,0,0-8.44-24.53A56.06,56.06,0,0,0,216,112v-8A58.14,58.14,0,0,0,208.31,75.68ZM200,112a40,40,0,0,1-40,40H112a40,40,0,0,1-40-40v-8a41.74,41.74,0,0,1,6.9-22.48A8,8,0,0,0,80,73.83a43.81,43.81,0,0,1,.79-33.58,43.88,43.88,0,0,1,32.32,20.06A8,8,0,0,0,119.82,64h32.35a8,8,0,0,0,6.74-3.69,43.87,43.87,0,0,1,32.32-20.06A43.81,43.81,0,0,1,192,73.83a8.09,8.09,0,0,0,1,7.65A41.72,41.72,0,0,1,200,104Z"></path></symbol>
</defs>
</svg>